<svg version="1.1" id="Layer_1" xmlns="http://www.w3.org/2000/svg" x="0" y="0" viewBox="0 0 260 75" xml:space="preserve"><style>.st2,.st3{fill:#606263}.st3{fill-rule:evenodd;clip-rule:evenodd}</style><g id="XMLID_1_"><path id="XMLID_25_" fill="#12a84d" d="M229.9 37.4v28.8l29.6-14.4V22.9z"/><path id="XMLID_26_" fill="#fcda00" d="M200.3 8.4v28.9l29.6 14.4V22.9z"/><path id="XMLID_27_" class="st2" d="M254.7 56.3v.3h.8v2.6h.3v-2.6h.8v-.3z"/><path id="XMLID_28_" class="st2" d="M259.2 56.3l-.9 1.5-.9-1.5h-.3v2.9h.3v-2.4l.9 1.6.9-1.6v2.4h.3v-2.9z"/><path id="XMLID_30_" class="st2" d="M20.5 22.8h-6.1v19.7c0 3.5-1.9 4-3.9 4-2.3 0-3.9-1-3.9-4V22.8h-6v20.1c0 5.2 3.4 8.4 9.8 8.5h1.3c1.7 0 8.7-1 8.7-1V22.8z"/><path id="XMLID_31_" class="st2" d="M32.8 51.4c-2 0-4-.5-5.9-1.6-1-.5-1.9-1.3-2.7-2.1-.8-.9-1.4-2-2-3.3l5-2.2c.3.7.6 1.2 1 1.8.3.5.7 1 1.2 1.4.5.4 1 .7 1.6.9.6.2 1.3.3 2 .3.5 0 1-.1 1.5-.1.5-.1.9-.3 1.3-.5s.7-.6.9-1c.2-.4.3-.9.3-1.6 0-.9-.5-1.7-1.4-2.3-1.1-.7-2.3-1.3-3.8-1.9-2.9-1.1-5.1-2.2-6.5-3.4-1.5-1.3-2.2-3-2.2-5.3 0-2.2.9-4.1 2.6-5.5 1.8-1.5 3.9-2.2 6.6-2.2 2.2 0 4.2.5 5.9 1.6.9.5 1.7 1.2 2.3 2 .7.8 1.3 1.9 1.8 3.2l-5.5 1.7c-.4-1.1-1-1.9-1.7-2.6-.7-.7-1.7-1-2.9-1-.4 0-.8 0-1.2.1-.4.1-.8.2-1.1.4-.3.2-.6.5-.8.8-.2.3-.3.7-.3 1.2 0 .4.1.7.4 1.1.2.3.6.7 1.2 1 1.2.7 2.6 1.3 4.1 1.8 2.1.7 4 1.7 5.7 3 1.8 1.3 2.7 3.3 2.7 5.8 0 2.7-.9 4.8-2.6 6.3-1.9 1.5-4.4 2.2-7.5 2.2"/><path id="XMLID_32_" class="st2" d="M62.4 48.9c-1 .9-2 1.6-3 2-1 .4-2.2.6-3.6.6-2 0-3.7-.4-5.2-1.1-1.4-.8-2.6-1.8-3.5-3.1-.9-1.3-1.6-2.7-2-4.4-.4-1.7-.6-3.4-.6-5.2 0-2 .2-3.9.6-5.6.4-1.8 1.1-3.4 2-4.7.9-1.4 2.2-2.4 3.7-3.3 1.5-.8 3.4-1.2 5.6-1.2 2.1 0 4.1.5 5.9 1.6.9.6 1.7 1.3 2.4 2.3.7.9 1.3 2.2 1.8 3.7L61 31.8c-.6-1.3-1.2-2.2-2-2.9-.7-.7-1.8-1-3.3-1-1.1 0-2.1.3-2.7 1-.7.7-1.2 1.5-1.6 2.5-.4 1-.6 2-.7 3.1-.1 1.1-.2 2.1-.2 2.9 0 .9.1 1.8.2 2.9.1 1 .4 2 .8 2.9.4.9.9 1.7 1.7 2.3.7.6 1.6.9 2.8.9 1.5 0 2.8-.5 3.7-1.5.8-.8 1.3-1.9 1.4-3.1H56v-5.1h11V51h-4.6v-2.1z"/><path id="XMLID_33_" class="st3" d="M74.9 51V23.8H85c4.8 0 8.1 1.9 8.1 7.1 0 2.5-.8 4.4-3 5.6v.1c3.9.5 5.6 3.1 5.6 6.9 0 5.7-4.9 7.6-9.9 7.6H74.9zm7.1-5.4h.9c2.1 0 5.6.1 5.6-2.9 0-3.3-3.5-3-5.8-3H82v5.9zm0-11.1h.8c1.9 0 3.8-.3 3.8-2.6 0-2.5-2.2-2.6-4.1-2.6H82v5.2z"/><path id="XMLID_37_" class="st3" d="M125.8 36.9c0 8.8-6.3 15-15.1 15-8.7 0-15.1-6.2-15.1-15 0-8.2 7.2-14 15.1-14 7.9 0 15.1 5.8 15.1 14m-22.7 0c0 4.7 3.5 8.1 7.7 8.1s7.7-3.4 7.7-8.1c0-3.8-3.5-7.2-7.7-7.2-4.3 0-7.7 3.5-7.7 7.2"/><path id="XMLID_40_" class="st3" d="M149.8 51H141l-6.7-10.5h-.1V51h-7.1V23.8h10.6c5.4 0 9.5 2.6 9.5 8.4 0 3.8-2.1 7-6 7.7l8.6 11.1zm-15.6-15h.7c2.3 0 4.9-.4 4.9-3.4s-2.6-3.4-4.9-3.4h-.7V36z"/><path id="XMLID_43_" class="st3" d="M156.7 46.3l-1.9 4.7h-7.5l10.5-27.2h7.7L175.8 51h-7.5l-1.8-4.7h-9.8zm5-14.1l-3 8.7h5.9l-2.9-8.7z"/><path id="XMLID_46_" class="st3" d="M183.7 45h8.4v6h-15.5V23.8h7.1z"/><path id="XMLID_47_" class="st2" d="M.5 56.5h1.1v9.9H.5z"/><path id="XMLID_48_" class="st2" d="M4 56.5h1l5.2 7.8v-7.8h1v9.9h-.9L5 58.5v7.9H4z"/><path id="XMLID_49_" class="st2" d="M13.6 56.5h1l5.2 7.8v-7.8h1v9.9h-.9l-5.3-7.9v7.9h-1z"/><path id="XMLID_50_" class="st2" d="M22.8 61.5v-.1c0-2.9 1.8-5.1 4.3-5.1s4.2 2.1 4.2 5v.1c0 2.9-1.7 5.1-4.3 5.1-2.4.1-4.2-2.1-4.2-5m7.4 0c0-2.5-1.3-4.2-3.2-4.2-1.8 0-3.2 1.7-3.2 4.1v.1c0 2.4 1.3 4.1 3.2 4.1 1.9 0 3.2-1.7 3.2-4.1"/><path id="XMLID_53_" class="st2" d="M32.1 56.5h1.2l2.9 8.5 2.9-8.5h1.1l-3.5 10h-1z"/><path id="XMLID_54_" class="st2" d="M43.8 56.5h1l3.8 9.9h-1.1l-1-2.6H42l-1 2.6h-1l3.8-9.9zm2.3 6.4l-1.9-5-1.9 5h3.8z"/><path id="XMLID_57_" class="st2" d="M51.3 57.5h-2.8v-1h6.6v1h-2.7v8.9h-1.1z"/><path id="XMLID_58_" class="st2" d="M57 56.5h1.1v9.9H57z"/><path id="XMLID_59_" class="st2" d="M60.1 61.5v-.1c0-2.9 1.8-5.1 4.3-5.1s4.2 2.1 4.2 5v.1c0 2.9-1.7 5.1-4.3 5.1-2.5.1-4.2-2.1-4.2-5m7.4 0c0-2.5-1.3-4.2-3.2-4.2-1.8 0-3.2 1.7-3.2 4.1v.1c0 2.4 1.3 4.1 3.2 4.1 1.9 0 3.2-1.7 3.2-4.1"/><path id="XMLID_62_" class="st2" d="M70.6 56.5h1l5.2 7.8v-7.8h1v9.9h-.9l-5.3-7.9v7.9h-1z"/><path id="XMLID_63_" class="st2" d="M84 56.5h1.1v9.9H84z"/><path id="XMLID_64_" class="st2" d="M87.5 56.5h1l5.2 7.8v-7.8h1v9.9h-.9l-5.3-7.9v7.9h-1z"/><path id="XMLID_65_" class="st2" d="M96.4 65.2l.7-.8c.8.8 1.7 1.2 2.8 1.2 1.2 0 2-.7 2-1.7 0-.8-.4-1.3-2.2-2-2-.8-2.9-1.5-2.9-2.9 0-1.5 1.2-2.6 3-2.6 1.1 0 2.1.4 3 1.1l-.6.8c-.7-.6-1.5-1-2.4-1-1.1 0-1.9.7-1.9 1.5 0 .9.4 1.4 2.3 2 2 .7 2.7 1.6 2.7 2.9 0 1.6-1.3 2.7-3.1 2.7-1.2.2-2.4-.3-3.4-1.2"/><path id="XMLID_66_" class="st2" d="M104.8 56.5h3c2.1 0 3.5 1.2 3.5 3.1 0 2.1-1.6 3.2-3.6 3.2h-1.8v3.5h-1.1v-9.8zm2.9 5.5c1.5 0 2.5-.9 2.5-2.2 0-1.4-1-2.2-2.5-2.2h-1.9V62h1.9z"/><path id="XMLID_69_" class="st2" d="M113.1 56.5h1.1v9.9h-1.1z"/><path id="XMLID_70_" class="st2" d="M116.6 56.5h3.4c1.1 0 2 .3 2.6.9.5.5.8 1.2.8 2 0 1.6-1 2.5-2.3 2.9l2.7 4.1h-1.3l-2.5-3.8h-2.2v3.8h-1.1v-9.9zm3.2 5.1c1.6 0 2.5-.8 2.5-2.1s-.9-2-2.4-2h-2.2v4.1h2.1z"/><path id="XMLID_73_" class="st2" d="M125.4 56.5h6v1h-5V61h4.5v.9h-4.5v3.5h5.1v1h-6.1z"/><path id="XMLID_74_" class="st2" d="M133.4 56.5h2.8c2.8 0 4.6 2 4.6 4.9v.1c0 2.9-1.9 4.9-4.6 4.9h-2.8v-9.9zm1 1v7.9h1.7c2.2 0 3.6-1.6 3.6-3.9v-.1c0-2.3-1.4-3.9-3.6-3.9h-1.7z"/><path id="XMLID_77_" class="st2" d="M146.5 56.5h3.3c1 0 1.9.3 2.4.8.4.4.7 1 .7 1.6 0 1.3-.8 2-1.6 2.3 1.2.3 2.1 1 2.1 2.4 0 1.7-1.4 2.7-3.4 2.7h-3.4v-9.8zm5.3 2.6c0-1-.8-1.7-2.1-1.7h-2.2V61h2.1c1.4 0 2.2-.7 2.2-1.9zm-2 2.8h-2.3v3.6h2.4c1.4 0 2.3-.7 2.3-1.8.1-1.2-.8-1.8-2.4-1.8"/><path id="XMLID_81_" class="st2" d="M157.4 62.4l-3.4-5.9h1.2l2.8 4.9 2.8-4.9h1.2l-3.5 5.9v4h-1.1z"/><path id="XMLID_82_" class="st2" d="M169.7 62.4l-3.5-5.9h1.2l2.8 4.9 2.8-4.9h1.2l-3.4 5.9v4h-1.1z"/><path id="XMLID_83_" class="st2" d="M174.6 61.5v-.1c0-2.9 1.8-5.1 4.3-5.1s4.2 2.1 4.2 5v.1c0 2.9-1.7 5.1-4.3 5.1-2.4.1-4.2-2.1-4.2-5m7.5 0c0-2.5-1.3-4.2-3.2-4.2-1.8 0-3.2 1.7-3.2 4.1v.1c0 2.4 1.3 4.1 3.2 4.1 1.8 0 3.2-1.7 3.2-4.1"/><path id="XMLID_86_" class="st2" d="M185 62.7v-6.2h1.1v6.2c0 1.9.9 2.9 2.5 2.9 1.5 0 2.5-1 2.5-2.9v-6.2h1.1v6.1c0 2.5-1.4 3.9-3.6 3.9-2.1.1-3.6-1.3-3.6-3.8"/><path id="XMLID_87_" class="st2" d="M194 65h1.3v1.5H194z"/><path id="XMLID_88_" class="st2" d="M196.3 56.6h-.9v-.3h2v.3h-.8v2.5h-.3z"/><path id="XMLID_89_" class="st2" d="M197.9 56.3h.3l.9 1.5.9-1.5h.3v2.8h-.3v-2.3l-.9 1.6-.9-1.6v2.3h-.3z"/></g></svg>